<svg width="24" height="24" viewBox="0 0 24 24" fill="none" xmlns="http://www.w3.org/2000/svg">
<path d="M12 22C17.5228 22 22 17.5228 22 12C22 6.47715 17.5228 2 12 2C6.47715 2 2 6.47715 2 12C2 17.5228 6.47715 22 12 22Z" stroke="currentColor" stroke-width="1.5" stroke-linecap="round" stroke-linejoin="round"/>
<path d="M8.0999 14.5299C8.0999 16.5999 9.5999 18.0999 11.6699 18.0999H12.7599C14.5299 18.0999 15.9999 16.6299 15.9999 14.8599C15.9999 12.8899 15.0699 12.1699 13.7799 11.6999L10.2299 10.3099C8.9399 9.83988 8.0099 9.11988 8.0099 7.14988C8.0099 5.37988 9.4799 3.90988 11.2499 3.90988H12.3399C14.4099 3.90988 15.9099 5.40988 15.9099 7.47988" stroke="currentColor" stroke-width="1.5" stroke-linecap="round" stroke-linejoin="round"/>
<path d="M12 2V22" stroke="currentColor" stroke-width="1.5" stroke-linecap="round" stroke-linejoin="round"/>
</svg>
